<svg width="50" height="49" viewBox="0 0 50 49" fill="none" xmlns="http://www.w3.org/2000/svg">
<path d="M14.5 0H35.5C43.5 0 50 6.37 50 14.21V34.79C50 38.5587 48.4723 42.1731 45.7531 44.838C43.0338 47.5029 39.3456 49 35.5 49H14.5C6.5 49 0 42.63 0 34.79V14.21C0 10.4413 1.52767 6.8269 4.24695 4.16201C6.96623 1.49712 10.6544 0 14.5 0ZM14 4.9C11.6131 4.9 9.32387 5.82925 7.63604 7.48332C5.94821 9.13739 5 11.3808 5 13.72V35.28C5 40.1555 9.025 44.1 14 44.1H36C38.3869 44.1 40.6761 43.1708 42.364 41.5167C44.0518 39.8626 45 37.6192 45 35.28V13.72C45 8.8445 40.975 4.9 36 4.9H14ZM38.125 8.575C38.9538 8.575 39.7487 8.89766 40.3347 9.47199C40.9208 10.0463 41.25 10.8253 41.25 11.6375C41.25 12.4497 40.9208 13.2287 40.3347 13.803C39.7487 14.3773 38.9538 14.7 38.125 14.7C37.2962 14.7 36.5013 14.3773 35.9153 13.803C35.3292 13.2287 35 12.4497 35 11.6375C35 10.8253 35.3292 10.0463 35.9153 9.47199C36.5013 8.89766 37.2962 8.575 38.125 8.575ZM25 12.25C28.3152 12.25 31.4946 13.5406 33.8388 15.8379C36.183 18.1353 37.5 21.2511 37.5 24.5C37.5 27.7489 36.183 30.8647 33.8388 33.1621C31.4946 35.4594 28.3152 36.75 25 36.75C21.6848 36.75 18.5054 35.4594 16.1612 33.1621C13.817 30.8647 12.5 27.7489 12.5 24.5C12.5 21.2511 13.817 18.1353 16.1612 15.8379C18.5054 13.5406 21.6848 12.25 25 12.25ZM25 17.15C23.0109 17.15 21.1032 17.9244 19.6967 19.3028C18.2902 20.6812 17.5 22.5507 17.5 24.5C17.5 26.4493 18.2902 28.3188 19.6967 29.6972C21.1032 31.0756 23.0109 31.85 25 31.85C26.9891 31.85 28.8968 31.0756 30.3033 29.6972C31.7098 28.3188 32.5 26.4493 32.5 24.5C32.5 22.5507 31.7098 20.6812 30.3033 19.3028C28.8968 17.9244 26.9891 17.15 25 17.15Z" fill="black"/>
</svg>
