<svg width="189" height="347" viewBox="0 0 189 347" fill="none" xmlns="http://www.w3.org/2000/svg">
<g filter="url(#filter0_f_28_171)">
<path fill-rule="evenodd" clip-rule="evenodd" d="M160.724 61.9166C187.802 63.802 215.222 28.1322 237.892 43.0607C260.216 57.7611 238.875 95.9074 249.552 120.411C262.309 149.69 306.68 164.134 304.531 195.999C302.465 226.618 263.783 239.029 240.224 258.695C214.51 280.158 194.128 318.488 160.724 316.039C127.012 313.567 110.959 273.551 89.2656 247.628C73.158 228.379 60.5559 208.134 51.0061 184.923C40.6011 159.633 27.2404 134.304 31.5296 107.295C36.2101 77.8236 47.1778 41.6313 75.3327 31.7421C104.53 21.4867 129.853 59.7671 160.724 61.9166Z" fill="url(#paint0_linear_28_171)"/>
</g>
<defs>
<filter id="filter0_f_28_171" x="0.706299" y="0" width="333.9" height="346.151" filterUnits="userSpaceOnUse" color-interpolation-filters="sRGB">
<feFlood flood-opacity="0" result="BackgroundImageFix"/>
<feBlend mode="normal" in="SourceGraphic" in2="BackgroundImageFix" result="shape"/>
<feGaussianBlur stdDeviation="15" result="effect1_foregroundBlur_28_171"/>
</filter>
<linearGradient id="paint0_linear_28_171" x1="3.4563" y1="30" x2="264.706" y2="231.75" gradientUnits="userSpaceOnUse">
<stop offset="0.140625" stop-color="#E77E90"/>
<stop offset="0.484375" stop-color="#F8A4B3" stop-opacity="0.910869"/>
<stop offset="0.755208" stop-color="#FCC3CD" stop-opacity="0.868472"/>
<stop offset="1" stop-color="#FFE6E6"/>
</linearGradient>
</defs>
</svg>
