<svg width="50" height="50" viewBox="0 0 50 50" fill="none" xmlns="http://www.w3.org/2000/svg">
<path d="M14.5 0.5H35.5C43.5 0.5 50 6.87 50 14.71V35.29C50 39.0587 48.4723 42.6731 45.7531 45.338C43.0338 48.0029 39.3456 49.5 35.5 49.5H14.5C6.5 49.5 0 43.13 0 35.29V14.71C0 10.9413 1.52767 7.3269 4.24695 4.66201C6.96623 1.99712 10.6544 0.5 14.5 0.5ZM14 5.4C11.6131 5.4 9.32387 6.32925 7.63604 7.98332C5.94821 9.63739 5 11.8808 5 14.22V35.78C5 40.6555 9.025 44.6 14 44.6H36C38.3869 44.6 40.6761 43.6708 42.364 42.0167C44.0518 40.3626 45 38.1192 45 35.78V14.22C45 9.3445 40.975 5.4 36 5.4H14ZM38.125 9.075C38.9538 9.075 39.7487 9.39766 40.3347 9.97199C40.9208 10.5463 41.25 11.3253 41.25 12.1375C41.25 12.9497 40.9208 13.7287 40.3347 14.303C39.7487 14.8773 38.9538 15.2 38.125 15.2C37.2962 15.2 36.5013 14.8773 35.9153 14.303C35.3292 13.7287 35 12.9497 35 12.1375C35 11.3253 35.3292 10.5463 35.9153 9.97199C36.5013 9.39766 37.2962 9.075 38.125 9.075ZM25 12.75C28.3152 12.75 31.4946 14.0406 33.8388 16.3379C36.183 18.6353 37.5 21.7511 37.5 25C37.5 28.2489 36.183 31.3647 33.8388 33.6621C31.4946 35.9594 28.3152 37.25 25 37.25C21.6848 37.25 18.5054 35.9594 16.1612 33.6621C13.817 31.3647 12.5 28.2489 12.5 25C12.5 21.7511 13.817 18.6353 16.1612 16.3379C18.5054 14.0406 21.6848 12.75 25 12.75ZM25 17.65C23.0109 17.65 21.1032 18.4244 19.6967 19.8028C18.2902 21.1812 17.5 23.0507 17.5 25C17.5 26.9493 18.2902 28.8188 19.6967 30.1972C21.1032 31.5756 23.0109 32.35 25 32.35C26.9891 32.35 28.8968 31.5756 30.3033 30.1972C31.7098 28.8188 32.5 26.9493 32.5 25C32.5 23.0507 31.7098 21.1812 30.3033 19.8028C28.8968 18.4244 26.9891 17.65 25 17.65Z" fill="black"/>
</svg>
